<?xml version="1.0" encoding="UTF-8"?>
<svg version="1.1" xmlns="http://www.w3.org/2000/svg" width="512" height="512">
<path d="M0 0 C1.94752409 -0.00807831 1.94752409 -0.00807831 3.93439209 -0.01631981 C7.52278425 -0.03073801 11.11094602 -0.02654115 14.6993506 -0.019153 C18.57539652 -0.01441458 22.45139309 -0.02693715 26.3274231 -0.03717041 C33.9150449 -0.05435081 41.50258387 -0.05519997 49.09022008 -0.04995751 C55.25890734 -0.04591301 61.42757016 -0.04736269 67.59625626 -0.05270576 C68.91414685 -0.0538284 68.91414685 -0.0538284 70.25866149 -0.05497371 C72.04363791 -0.05650522 73.82861432 -0.05804357 75.61359073 -0.05958868 C92.34621297 -0.07331108 109.07878844 -0.06787795 125.81140961 -0.05640347 C141.11046002 -0.04647228 156.40938946 -0.05941023 171.70842122 -0.08333766 C187.42720785 -0.10773586 203.14593816 -0.1173347 218.86474335 -0.11068493 C227.68575249 -0.1071942 236.50666862 -0.10941511 245.32766342 -0.12693596 C252.8371064 -0.14166699 260.34639088 -0.14228168 267.85583077 -0.12486505 C271.68497835 -0.11635988 275.51384289 -0.11419342 279.34297562 -0.1295166 C283.49938702 -0.14594313 287.65511723 -0.13120018 291.81152344 -0.11352539 C293.01425962 -0.1231304 294.21699581 -0.1327354 295.45617855 -0.14263147 C303.80029038 -0.06968965 310.91108907 1.23040534 317.65383911 6.39549255 C323.67036377 13.40830194 326.46006962 19.68023888 325.97024536 29.01268005 C324.84466906 37.3372548 321.66261401 42.32638867 315.42337036 47.8447113 C307.869443 52.72020364 300.81586646 52.81892394 292.06549072 52.77536011 C290.76714133 52.78074565 289.46879194 52.78613118 288.13109863 52.79167992 C284.54270647 52.80609811 280.9545447 52.80190126 277.36614013 52.79451311 C273.4900942 52.78977469 269.61409763 52.80229726 265.73806763 52.81253052 C258.15044582 52.82971092 250.56290685 52.83056008 242.97527064 52.82531761 C236.80658338 52.82127312 230.63792056 52.8227228 224.46923447 52.82806587 C223.15134388 52.82918851 223.15134388 52.82918851 221.80682924 52.83033382 C220.02185282 52.83186533 218.2368764 52.83340367 216.45189999 52.83494879 C199.71927775 52.84867119 182.98670229 52.84323806 166.25408112 52.83176357 C150.95503071 52.82183239 135.65610126 52.83477034 120.35706951 52.85869776 C104.63828287 52.88309597 88.91955256 52.8926948 73.20074737 52.88604504 C64.37973823 52.8825543 55.5588221 52.88477522 46.7378273 52.90229607 C39.22838432 52.9170271 31.71909985 52.91764178 24.20965995 52.90022516 C20.38051237 52.89171998 16.55164783 52.88955352 12.72251511 52.90487671 C8.5661037 52.92130324 4.41037349 52.90656029 0.25396729 52.8888855 C-0.9487689 52.8984905 -2.15150509 52.90809551 -3.39068782 52.91799158 C-11.73479966 52.84504976 -18.84559835 51.54495477 -25.58834839 46.37986755 C-31.60487305 39.36705816 -34.3945789 33.09512123 -33.90475464 23.76268005 C-32.77917833 15.4381053 -29.59712328 10.44897144 -23.35787964 4.9306488 C-15.80395227 0.05515647 -8.75037574 -0.04356383 0 0 Z " fill="#000000" transform="translate(109.96725463867188,357.61231994628906)"/>
<path d="M0 0 C1.94752409 -0.00807831 1.94752409 -0.00807831 3.93439209 -0.01631981 C7.52278425 -0.03073801 11.11094602 -0.02654115 14.6993506 -0.019153 C18.57539652 -0.01441458 22.45139309 -0.02693715 26.3274231 -0.03717041 C33.9150449 -0.05435081 41.50258387 -0.05519997 49.09022008 -0.04995751 C55.25890734 -0.04591301 61.42757016 -0.04736269 67.59625626 -0.05270576 C68.91414685 -0.0538284 68.91414685 -0.0538284 70.25866149 -0.05497371 C72.04363791 -0.05650522 73.82861432 -0.05804357 75.61359073 -0.05958868 C92.34621297 -0.07331108 109.07878844 -0.06787795 125.81140961 -0.05640347 C141.11046002 -0.04647228 156.40938946 -0.05941023 171.70842122 -0.08333766 C187.42720785 -0.10773586 203.14593816 -0.1173347 218.86474335 -0.11068493 C227.68575249 -0.1071942 236.50666862 -0.10941511 245.32766342 -0.12693596 C252.8371064 -0.14166699 260.34639088 -0.14228168 267.85583077 -0.12486505 C271.68497835 -0.11635988 275.51384289 -0.11419342 279.34297562 -0.1295166 C283.49938702 -0.14594313 287.65511723 -0.13120018 291.81152344 -0.11352539 C293.01425962 -0.1231304 294.21699581 -0.1327354 295.45617855 -0.14263147 C303.80029038 -0.06968965 310.91108907 1.23040534 317.65383911 6.39549255 C323.67036377 13.40830194 326.46006962 19.68023888 325.97024536 29.01268005 C324.84466906 37.3372548 321.66261401 42.32638867 315.42337036 47.8447113 C307.869443 52.72020364 300.81586646 52.81892394 292.06549072 52.77536011 C290.76714133 52.78074565 289.46879194 52.78613118 288.13109863 52.79167992 C284.54270647 52.80609811 280.9545447 52.80190126 277.36614013 52.79451311 C273.4900942 52.78977469 269.61409763 52.80229726 265.73806763 52.81253052 C258.15044582 52.82971092 250.56290685 52.83056008 242.97527064 52.82531761 C236.80658338 52.82127312 230.63792056 52.8227228 224.46923447 52.82806587 C223.15134388 52.82918851 223.15134388 52.82918851 221.80682924 52.83033382 C220.02185282 52.83186533 218.2368764 52.83340367 216.45189999 52.83494879 C199.71927775 52.84867119 182.98670229 52.84323806 166.25408112 52.83176357 C150.95503071 52.82183239 135.65610126 52.83477034 120.35706951 52.85869776 C104.63828287 52.88309597 88.91955256 52.8926948 73.20074737 52.88604504 C64.37973823 52.8825543 55.5588221 52.88477522 46.7378273 52.90229607 C39.22838432 52.9170271 31.71909985 52.91764178 24.20965995 52.90022516 C20.38051237 52.89171998 16.55164783 52.88955352 12.72251511 52.90487671 C8.5661037 52.92130324 4.41037349 52.90656029 0.25396729 52.8888855 C-0.9487689 52.8984905 -2.15150509 52.90809551 -3.39068782 52.91799158 C-11.73479966 52.84504976 -18.84559835 51.54495477 -25.58834839 46.37986755 C-31.60487305 39.36705816 -34.3945789 33.09512123 -33.90475464 23.76268005 C-32.77917833 15.4381053 -29.59712328 10.44897144 -23.35787964 4.9306488 C-15.80395227 0.05515647 -8.75037574 -0.04356383 0 0 Z " fill="#000000" transform="translate(109.96725463867188,101.61231994628906)"/>
<path d="M0 0 C1.61217724 -0.00570871 3.22435045 -0.0126749 4.83651733 -0.02079773 C9.1981377 -0.03868871 13.55955643 -0.03756846 17.92120242 -0.03185534 C21.56923201 -0.02875769 25.2172232 -0.03486233 28.86524731 -0.04089409 C37.47448795 -0.05492429 46.08362933 -0.05339049 54.69287109 -0.04199219 C63.56003424 -0.03051148 72.42689491 -0.04458924 81.29401821 -0.07138866 C88.92145487 -0.09357402 96.54879677 -0.10017668 104.17626339 -0.09431225 C108.72550234 -0.09094837 113.27454741 -0.09331987 117.82375908 -0.11056328 C122.10275227 -0.12607573 126.38129869 -0.12202951 130.66027451 -0.10325813 C132.22551834 -0.09958416 133.79079559 -0.10264583 135.35600853 -0.11314392 C145.25110983 -0.17441636 152.36272689 0.89073427 160.83813477 6.09155273 C167.29481604 12.72758627 169.44985948 20.2135045 169.37329102 29.25952148 C168.78261652 35.77312384 165.77434268 41.84449909 161.08813477 46.40405273 C154.87276189 50.38189137 149.98002243 52.52471708 142.53062439 52.55122375 C141.52668376 52.55673879 141.52668376 52.55673879 140.50246149 52.56236523 C138.25488846 52.57339711 136.00736167 52.57724511 133.75976562 52.58105469 C132.14995171 52.58731989 130.54013925 52.59396674 128.93032837 52.60096741 C123.63788866 52.62200963 118.34544867 52.63237235 113.05297852 52.64233398 C111.22960457 52.64638197 109.40623077 52.65049891 107.58285713 52.65468407 C99.01317719 52.67373887 90.44350586 52.68796731 81.8738088 52.69629604 C71.99171907 52.70605931 62.10985388 52.73235381 52.22784323 52.77279693 C44.58437569 52.80300121 36.94097234 52.81776914 29.29744631 52.82107705 C24.73521849 52.82342331 20.17323045 52.83232792 15.61106682 52.85753822 C11.31411804 52.88089846 7.01756554 52.88502042 2.72056961 52.87477684 C1.14928554 52.87428324 -0.42201855 52.8805516 -1.99324226 52.89433289 C-11.81531973 52.97561403 -20.47123886 52.57168605 -28.53295898 46.39624023 C-34.54948365 39.38343084 -37.3391895 33.11149391 -36.84936523 23.77905273 C-35.72378893 15.45447799 -32.54173388 10.46534412 -26.30249023 4.94702148 C-17.99256379 -0.41641143 -9.53541761 -0.030501 0 0 Z " fill="#000000" transform="translate(112.911865234375,229.595947265625)"/>
</svg>
