<?xml version="1.0" standalone="no"?>
<!DOCTYPE svg PUBLIC "-//W3C//DTD SVG 20010904//EN"
 "http://www.w3.org/TR/2001/REC-SVG-20010904/DTD/svg10.dtd">
<svg version="1.0" xmlns="http://www.w3.org/2000/svg"
 width="432.000000pt" height="202.000000pt" viewBox="0 0 432.000000 202.000000"
 preserveAspectRatio="xMidYMid meet">

<g transform="translate(0.000000,202.000000) scale(0.100000,-0.100000)"
fill="#000000" stroke="none">
<path d="M2156 1488 c-8 -13 -19 -57 -25 -98 -6 -41 -20 -131 -31 -200 -35
-217 -36 -227 -12 -234 12 -4 19 -13 16 -21 -3 -7 4 -35 16 -62 12 -26 28 -93
37 -148 20 -131 26 -145 59 -145 48 0 71 63 39 106 -17 22 -19 72 -5 110 6 15
33 51 60 81 53 57 60 77 34 87 -33 13 -57 5 -87 -29 -34 -38 -57 -45 -57 -17
0 22 -30 52 -52 52 -12 0 -14 8 -7 51 10 62 20 76 70 90 32 10 42 9 63 -5 14
-9 29 -29 32 -44 18 -73 55 -103 84 -67 11 13 10 25 -8 68 -12 29 -22 69 -22
89 0 21 -6 38 -14 41 -7 3 -32 56 -55 119 -68 184 -101 228 -135 176z m69
-191 c14 -26 25 -59 25 -81 0 -30 -4 -38 -26 -47 -28 -10 -64 -4 -64 11 0 5 5
32 11 62 6 29 13 63 15 76 2 12 6 22 9 22 2 0 16 -20 30 -43z"/>
<path d="M2413 1480 c-33 -14 -37 -62 -18 -237 20 -179 26 -200 57 -212 19 -7
58 -4 58 4 0 2 -9 65 -21 142 -14 95 -19 162 -15 215 5 69 3 79 -14 88 -21 11
-18 11 -47 0z"/>
<path d="M3275 1421 c-93 -42 -140 -111 -151 -222 -5 -43 -13 -70 -25 -82 -38
-36 -11 -146 40 -162 12 -3 21 -13 21 -21 0 -27 58 -129 92 -161 66 -64 137
-66 205 -8 39 33 103 138 103 169 0 22 -66 22 -110 -1 -46 -23 -84 -3 -88 47
-2 18 -10 43 -18 54 -8 12 -14 44 -14 78 0 47 -4 59 -20 68 -17 9 -20 21 -20
80 0 60 3 69 20 75 14 4 20 15 20 35 0 19 9 36 26 49 l27 21 -34 0 c-19 0 -52
-9 -74 -19z m45 -24 c0 -8 -3 -17 -7 -20 -9 -9 -34 13 -27 24 8 14 34 11 34
-4z m-62 -100 c2 -12 -3 -17 -17 -17 -12 0 -21 6 -21 13 0 31 32 34 38 4z m20
-80 c2 -10 -3 -17 -12 -17 -18 0 -29 16 -21 31 9 14 29 6 33 -14z m20 -164 c2
-9 -11 -13 -47 -13 -48 0 -61 7 -44 24 12 11 86 2 91 -11z"/>
<path d="M3482 1410 c-9 -14 -23 -20 -52 -20 -43 0 -70 -26 -70 -67 0 -18 6
-23 25 -23 16 0 25 -6 25 -15 0 -8 -7 -15 -15 -15 -8 0 -15 -7 -15 -15 0 -10
-10 -15 -31 -15 -38 0 -35 -24 4 -28 27 -3 36 -25 17 -37 -18 -11 -11 -81 11
-109 16 -20 29 -26 60 -26 33 0 40 -4 45 -25 3 -14 12 -25 20 -25 11 0 14 18
14 76 0 56 -3 75 -12 72 -7 -3 -14 -14 -16 -26 -4 -26 -24 -28 -46 -6 -20 20
-23 203 -4 222 8 8 49 12 119 12 115 0 139 -9 139 -52 0 -19 -1 -19 -20 3 -17
20 -21 22 -29 9 -8 -11 -3 -23 19 -45 22 -23 30 -40 30 -65 -1 -32 -2 -34 -15
-16 -8 11 -21 16 -30 13 -22 -9 -19 -22 10 -41 44 -29 27 -56 -36 -56 -26 0
-28 2 -22 30 5 25 2 30 -14 30 -21 0 -56 33 -66 63 -7 19 -32 23 -42 7 -3 -5
17 -35 46 -65 41 -44 48 -56 35 -61 -20 -8 -24 -108 -3 -102 6 3 13 19 15 36
7 67 22 17 22 -72 0 -79 3 -95 19 -110 11 -10 21 -27 23 -39 2 -11 11 -25 21
-31 14 -9 21 -7 32 7 15 21 10 47 -9 47 -7 0 -22 10 -34 23 -18 19 -22 35 -22
91 0 76 12 96 57 96 51 0 73 25 73 81 0 37 -4 49 -15 49 -8 0 -15 7 -15 15 0
8 7 15 15 15 8 0 15 6 15 14 0 9 12 16 33 18 17 2 32 8 32 13 0 6 -15 11 -32
13 -32 3 -33 4 -33 52 0 59 -18 80 -68 80 -26 0 -41 6 -50 20 -21 35 -42 25
-42 -21 0 -24 -4 -38 -10 -34 -5 3 -10 22 -10 41 0 49 -28 46 -32 -3 -2 -21
-7 -38 -13 -38 -5 0 -11 17 -13 38 -4 41 -20 48 -40 17z"/>
<path d="M1136 1394 c-145 -23 -248 -80 -215 -120 16 -19 27 -18 76 8 23 12
46 19 50 14 4 -4 11 -99 14 -210 3 -112 9 -208 13 -214 4 -6 -2 -20 -13 -31
-19 -19 -19 -18 -25 18 -8 52 -38 78 -71 63 -29 -14 -31 -34 -12 -137 14 -75
9 -140 -10 -140 -6 0 -26 22 -45 50 -18 27 -45 56 -60 64 -25 15 -29 14 -53
-9 -15 -14 -33 -51 -46 -94 -25 -87 -42 -108 -59 -77 -21 41 -40 116 -40 163
0 61 -15 98 -38 98 -76 0 -69 -186 11 -323 35 -59 53 -69 94 -52 34 14 50 40
84 129 11 31 24 56 29 56 5 0 28 -27 50 -61 62 -90 109 -99 144 -26 20 43 36
155 30 205 -5 35 -4 34 20 -18 13 -30 32 -104 42 -164 16 -95 20 -109 41 -119
50 -22 90 67 50 111 -13 14 -15 28 -8 69 6 42 17 62 59 109 57 63 64 88 30 98
-35 9 -36 9 -79 -35 l-40 -41 -20 38 c-16 32 -17 39 -5 46 12 7 14 43 9 228
-5 183 -4 220 8 224 8 3 33 10 56 16 48 12 72 42 52 66 -6 8 -17 13 -23 13 -6
-1 -51 -8 -100 -15z"/>
<path d="M1324 1285 c-12 -19 -15 -35 -9 -63 3 -20 10 -91 14 -157 4 -68 14
-133 22 -150 15 -33 51 -44 75 -25 16 14 19 70 4 70 -17 0 -11 23 21 79 21 36
34 50 41 43 5 -5 16 -44 23 -87 16 -91 28 -109 67 -101 26 5 28 4 28 -30 0
-50 -14 -70 -65 -93 -52 -23 -67 -48 -40 -67 15 -11 24 -11 53 2 20 8 39 11
44 6 5 -5 20 -71 34 -148 30 -169 39 -196 68 -192 30 4 31 35 2 193 -15 76
-26 146 -26 156 0 13 11 19 45 25 56 8 91 34 82 59 -6 15 -15 16 -61 11 -51
-7 -54 -6 -60 17 -3 14 -3 46 0 72 6 37 10 45 23 40 35 -15 88 -16 126 -2 34
12 40 19 43 45 4 36 -4 39 -52 16 -37 -18 -80 -13 -89 10 -4 9 18 33 61 68 75
60 84 84 53 135 -55 89 -184 94 -228 10 -19 -37 -19 -109 1 -164 13 -36 13
-43 0 -54 -8 -6 -14 -23 -15 -38 -1 -14 -7 1 -14 34 -8 33 -22 85 -33 115 -16
46 -23 56 -45 58 -28 3 -70 -30 -94 -73 -19 -33 -27 -10 -31 88 -2 50 -9 98
-14 105 -16 19 -36 14 -54 -13z m447 -75 c46 -25 -3 -105 -60 -98 -22 3 -26 9
-29 43 -5 56 37 82 89 55z"/>
<path d="M3486 1295 c-7 -19 10 -28 53 -29 34 -1 36 -3 37 -34 1 -38 7 -47 29
-39 22 9 18 52 -7 80 -28 31 -103 45 -112 22z"/>
<path d="M3770 1185 c0 -12 7 -15 25 -13 14 2 26 8 26 13 0 6 -12 11 -26 13
-18 2 -25 -1 -25 -13z"/>
<path d="M3733 1013 c-59 -4 -77 -13 -53 -28 6 -3 10 -14 10 -24 0 -10 11 -28
25 -41 14 -13 25 -31 25 -40 0 -36 52 -55 64 -24 7 18 -9 44 -28 45 -17 1 -68
67 -61 79 10 17 49 11 68 -10 18 -21 42 -18 51 7 7 18 -11 44 -28 41 -6 -1
-39 -3 -73 -5z"/>
<path d="M3412 998 c-7 -7 -12 -18 -12 -25 0 -22 27 -15 44 12 15 24 15 25 -2
25 -10 0 -23 -5 -30 -12z"/>
<path d="M1872 886 c-36 -33 -37 -37 -36 -99 1 -84 39 -166 90 -198 30 -18 45
-21 95 -16 67 6 89 19 89 53 0 28 -16 40 -34 24 -38 -30 -116 -28 -116 4 0 7
12 22 27 31 48 32 113 97 113 114 0 27 -38 80 -72 101 -19 12 -51 20 -76 20
-34 0 -49 -6 -80 -34z m142 -58 c14 -23 -19 -68 -59 -81 -23 -8 -31 -6 -42 9
-18 24 -16 59 3 79 21 21 83 16 98 -7z"/>
<path d="M1369 803 c-14 -16 -16 -164 -3 -226 7 -35 37 -52 65 -36 18 9 20 16
14 47 -11 56 -13 144 -4 175 4 16 5 35 2 43 -7 19 -57 18 -74 -3z"/>
<path d="M3173 725 c-65 -20 -129 -61 -152 -99 -43 -69 -61 -66 332 -66 195 0
356 3 360 6 12 12 -16 65 -53 97 -34 31 -133 77 -163 77 -7 0 -30 -12 -52 -25
-54 -33 -115 -33 -174 0 -49 28 -43 28 -98 10z"/>
</g>
</svg>
